<?xml version="1.0" encoding="UTF-8"?>
<svg xmlns="http://www.w3.org/2000/svg" version="1.1" viewBox="0 0 100 100">
  <defs>
    <style>
      .cls-1 {
        fill: #fff;
      }

      .cls-2 {
        fill: #cdbcac;
      }
    </style>
  </defs>
  <!-- Generator: Adobe Illustrator 28.7.1, SVG Export Plug-In . SVG Version: 1.2.0 Build 142)  -->
  <g>
    <g id="Layer_1">
      <path class="cls-2" d="M50.42,77.34c3.08.65,5.8,1.12,8.46,1.8,6.87,1.75,13.42,4.32,19.4,8.2,1.13.73,2.18,1.59,3.27,2.39.1.07.19.16.28.24.81.82.93,1.77.32,2.46-.62.7-1.47.65-2.45-.05-1.85-1.31-3.65-2.7-5.61-3.83-6.39-3.67-13.31-5.9-20.52-7.36-4.67-.94-9.39-1.18-14.1-.74-4.53.42-8.99,1.4-13.02,3.65-1.38.77-2.63,1.78-3.88,2.76-1.26.99-1.88,2.39-2.15,3.95-.05.3-.05.62-.14.91-.25.78-.78,1.27-1.63,1.21-.85-.06-1.38-.59-1.43-1.42-.04-.66.04-1.35.2-1.99.78-3.09,2.82-5.26,5.36-6.99,3.94-2.67,8.38-3.99,13.02-4.77.83-.14,1.66-.3,2.48-.44,1.39-9.92,2.76-19.67,4.18-29.75-1.76,1.9-3.36,3.63-4.98,5.35-.97,1.03-1.88,2.11-2.95,3.03-2.33,2.01-5.34,2.07-6.93-1.33-.54-1.15-.89-2.38-1.4-3.77-.93.67-1.79,1.33-2.69,1.92-1.69,1.11-3.35,2.3-5.14,3.21-1.29.65-2.74,1.11-4.17,1.31-2.04.28-3.28-.96-3.23-3.04.02-.84.21-1.71.48-2.52,3.3-9.77,9.95-15.95,19.93-18.57.53-.14,1.06-.29,1.9-.52-.66-.33-1.04-.58-1.47-.72-1.4-.45-2.82-.83-4.22-1.29-.75-.25-1.49-.56-2.2-.9-2.74-1.34-3.12-4.24-1.28-6.47.81-.99,1.8-1.82,2.88-2.91-.73-.39-1.37-.7-1.97-1.08-2.44-1.51-4.92-2.98-7.29-4.61-.83-.57-1.48-1.47-2.03-2.34-.9-1.43-.56-2.96.88-3.82.82-.49,1.79-.87,2.74-.99,10.03-1.35,18.55,1.58,25.33,9.17,1.54,1.72,2.85,3.65,4.42,5.7.16-.63.3-1.11.4-1.61.93-4.56,1.86-9.13,2.8-13.69.09-.42.19-.85.37-1.23.37-.75,1.02-1.07,1.83-.86.8.21,1.25.77,1.19,1.62-.03.42-.17.84-.25,1.26-1.07,5.22-2.14,10.45-3.2,15.67-.02.1.06.23.12.48.38-.18.77-.31,1.09-.52,4.77-3.2,9.94-5.26,15.69-5.85,6.21-.64,11.93.85,17.29,3.9,1.21.69,2.39,1.52,3.39,2.49,1.84,1.77,1.47,3.9-.77,5.12-1.82.99-3.83,1.26-5.85,1.49-1.16.13-2.32.23-3.49.28-1.16.05-2.32.01-3.81.01.32.81.59,1.34.73,1.89.27,1.06.63,2.14.66,3.21.08,2.48-1.1,3.74-3.56,4.04-.71.08-1.43.09-2.44.15.85.8,1.5,1.41,2.16,2.01,5.53,5.08,8.25,11.47,8.74,18.87.06.9-.1,1.84-.31,2.73-.35,1.51-1.71,2.43-3.2,2-1.15-.33-2.37-.85-3.22-1.65-2.19-2.05-4.19-4.29-6.26-6.46-.37-.39-.7-.83-1.13-1.34-.73,1.1-1.34,2.15-2.08,3.1-2.18,2.82-5.18,2.84-7.11-.14-1.79-2.77-3.27-5.75-4.88-8.64-.41-.74-.83-1.47-1.45-2.18-.85,4.75-1.05,9.52-1.34,14.28-.3,4.83-.49,9.66-.73,14.53ZM87.3,26.62c.03-.17.05-.33.08-.5-.67-.51-1.29-1.12-2.02-1.5-1.68-.88-3.36-1.83-5.15-2.43-10.27-3.45-19.3-.8-27.5,5.77-.72.58-.68,1.18-.59,1.94.1.84-.35,1.43-1.19,1.6-.82.17-1.44-.16-1.8-.92-.08-.16-.08-.36-.14-.53-1.53-4.05-3.58-7.8-6.45-11.07-5.88-6.67-13.28-9.39-22.07-8.5-.56.06-1.1.28-1.99.52.73.69,1.12,1.16,1.61,1.5,1.15.81,2.31,1.63,3.54,2.31,2.2,1.22,4.44,2.35,6.69,3.49.83.42,1.77.71,1.83,1.83.05,1.05-.83,1.38-1.55,1.86-1.02.68-2.04,1.37-2.97,2.17-.62.53-1.06,1.25-1.59,1.89.78,1.06,1.75,1.34,2.68,1.57,5.58,1.4,10.8,4.04,16.61,4.62,1.09.11,1.64.83,1.58,1.69-.06.92-.82,1.48-1.98,1.44-.24,0-.49-.06-.73-.08-3.44-.36-6.87-.25-10.26.43-9.5,1.9-15.93,7.45-19.36,16.48-.22.58-.25,1.22-.44,2.22,1.12-.52,1.89-.76,2.53-1.19,3.19-2.17,6.35-4.39,9.5-6.6.61-.43,1.19-.94,2-.65.88.32,1,1.11,1.13,1.93.24,1.57.48,3.16.92,4.68.51,1.76,1.26,1.88,2.59.6.18-.17.33-.37.49-.55,3.49-3.79,6.98-7.59,10.47-11.37.46-.49.91-1.03,1.48-1.36,1.08-.64,2.31.16,2.26,1.43-.01.36-.13.72-.22,1.08-.51,2.09-1.09,4.15-1.52,6.26-1.82,8.97-2.91,18.04-3.9,27.13-.04.35,0,.71,0,1.21h5.38c.04-.8.07-1.46.1-2.13.1-2.51.14-5.03.32-7.54.47-6.67.99-13.34,1.5-20,.11-1.47.27-2.93.42-4.4.09-.88.27-1.77,1.28-2.01,1.02-.25,1.59.42,2.05,1.2.34.58.66,1.17.99,1.77,2.27,4.14,4.52,8.29,6.8,12.43.43.78.77,1.71,2.06,1.96.48-.66,1.12-1.33,1.53-2.12.62-1.19,1.07-2.46,1.61-3.69.63-1.44,1.79-1.66,2.88-.52.47.48.83,1.06,1.27,1.57,1.94,2.3,3.81,4.64,5.85,6.84.78.84,1.55,1.89,2.96,2.09.06-.39.15-.69.14-.98-.37-6.31-2.6-11.85-7.13-16.29-4.8-4.71-10.72-7.23-17.31-8.28-.42-.07-.85-.14-1.26-.26-.72-.23-1.13-.73-1.11-1.51.03-.88.59-1.37,1.38-1.47.59-.08,1.23,0,1.82.13,2.03.45,4.04,1.03,6.09,1.41,3.19.59,6.41,1.11,9.62,1.55.93.13,2.24.26,2.77-.25.84-.8-.05-1.94-.47-2.85-.54-1.16-1.25-2.25-1.86-3.37-.75-1.39-.2-2.44,1.35-2.59.43-.04.86.02,1.29,0,3.06-.11,6.13-.17,9.19-.36,1.33-.08,2.63-.46,3.95-.7Z"/>
      <path class="cls-1" d="M87.3,26.62c-1.32.24-2.62.61-3.95.7-3.06.2-6.13.26-9.19.36-.43.02-.86-.04-1.29,0-1.55.15-2.1,1.2-1.35,2.59.61,1.13,1.32,2.21,1.86,3.37.42.91,1.32,2.05.47,2.85-.53.51-1.85.37-2.77.25-3.22-.44-6.43-.96-9.62-1.55-2.05-.38-4.05-.96-6.09-1.41-.59-.13-1.23-.21-1.82-.13-.79.11-1.35.59-1.38,1.47-.02.78.38,1.28,1.11,1.51.41.13.83.2,1.26.26,6.59,1.05,12.51,3.58,17.31,8.28,4.54,4.44,6.76,9.98,7.13,16.29.02.29-.08.59-.14.98-1.41-.2-2.18-1.25-2.96-2.09-2.04-2.2-3.92-4.55-5.85-6.84-.43-.52-.8-1.09-1.27-1.57-1.09-1.13-2.25-.91-2.88.52-.54,1.23-.99,2.51-1.61,3.69-.41.79-1.04,1.46-1.53,2.12-1.29-.26-1.63-1.18-2.06-1.96-2.28-4.13-4.54-8.28-6.8-12.43-.32-.59-.64-1.19-.99-1.77-.46-.78-1.03-1.45-2.05-1.2-1.02.25-1.19,1.13-1.28,2.01-.15,1.46-.31,2.93-.42,4.4-.51,6.67-1.03,13.33-1.5,20-.18,2.51-.21,5.03-.32,7.54-.03.67-.06,1.33-.1,2.13h-5.38c0-.5-.03-.86,0-1.21.99-9.09,2.08-18.16,3.9-27.13.43-2.1,1.01-4.17,1.52-6.26.09-.36.21-.72.22-1.08.05-1.26-1.18-2.07-2.26-1.43-.56.33-1.02.87-1.48,1.36-3.5,3.78-6.98,7.58-10.47,11.37-.17.18-.32.38-.49.55-1.33,1.28-2.08,1.16-2.59-.6-.44-1.52-.68-3.11-.92-4.68-.13-.83-.24-1.61-1.13-1.93-.8-.29-1.38.22-2,.65-3.16,2.22-6.31,4.43-9.5,6.6-.64.43-1.41.67-2.53,1.19.19-1,.23-1.64.44-2.22,3.43-9.04,9.85-14.58,19.36-16.48,3.39-.68,6.82-.79,10.26-.43.24.03.49.07.73.08,1.17.04,1.92-.51,1.98-1.44.06-.86-.5-1.58-1.58-1.69-5.81-.58-11.04-3.22-16.61-4.62-.92-.23-1.9-.51-2.68-1.57.52-.64.97-1.36,1.59-1.89.93-.8,1.95-1.49,2.97-2.17.72-.47,1.6-.8,1.55-1.86-.06-1.12-1-1.41-1.83-1.83-2.25-1.13-4.49-2.27-6.69-3.49-1.23-.68-2.38-1.5-3.54-2.31-.48-.34-.87-.8-1.61-1.5.89-.24,1.43-.46,1.99-.52,8.78-.89,16.19,1.83,22.07,8.5,2.87,3.27,4.92,7.02,6.45,11.07.06.17.06.37.14.53.37.76.99,1.09,1.8.92.84-.17,1.29-.76,1.19-1.6-.09-.76-.13-1.37.59-1.94,8.2-6.57,17.23-9.22,27.5-5.77,1.79.6,3.47,1.55,5.15,2.43.73.38,1.35.99,2.02,1.5-.03.17-.05.33-.08.5Z"/>
    </g>
  </g>
</svg>