<?xml version="1.0" encoding="UTF-8"?>
<svg xmlns="http://www.w3.org/2000/svg" version="1.1" viewBox="0 0 100 100">
  <defs>
    <style>
      .cls-1 {
        fill: #28282b;
        font-family: Brand, Brand;
        font-size: 14.81px;
        letter-spacing: .2em;
      }

      .cls-2 {
        fill: #cdbcac;
      }
    </style>
  </defs>
  <!-- Generator: Adobe Illustrator 28.7.1, SVG Export Plug-In . SVG Version: 1.2.0 Build 142)  -->
  <g>
    <g id="Layer_1">
      <g>
        <path class="cls-2" d="M74.33,13.22c-6.36-5.77-14.82-8.95-23.81-8.95s-17.45,3.18-23.81,8.95c-6.36,5.77-9.86,13.44-9.86,21.6v36.35c0,.47.42.84.93.84h65.48c.51,0,.93-.38.93-.84v-36.35c0-8.16-3.5-15.83-9.86-21.6ZM82.33,70.32H18.71v-35.5c0-7.71,3.31-14.95,9.32-20.4,6.01-5.45,14-8.45,22.49-8.45s16.49,3,22.49,8.45c6.01,5.45,9.32,12.7,9.32,20.4v35.5Z"/>
        <path class="cls-2" d="M50.52,8.13c-7.86,0-15.24,2.78-20.8,7.82-5.56,5.04-8.62,11.74-8.62,18.87v32.49c0,.47.42.84.93.84h56.97c.51,0,.93-.38.93-.84v-32.49c0-7.13-3.06-13.83-8.62-18.87-5.56-5.04-12.94-7.82-20.8-7.82ZM45.64,30.38c0-5.67,5.09-10.29,11.34-10.29s11.34,4.61,11.34,10.29-5.09,10.29-11.34,10.29c-2.28,0-4.44-.6-6.29-1.72l7.39.04h0c.36,0,.68-.18.84-.47.16-.29.12-.64-.11-.89-.21-.25-5.34-6.03-12.29-6.03,0,0-.01,0-.01,0-.26,0-.52,0-.78.03-.05-.41-.08-.82-.08-1.23ZM46.5,33.27s.01,0,.02,0c4.06,0,7.54,2.41,9.39,4.01l-17.94-.09c2.67-2.6,5.53-3.91,8.52-3.92ZM48.89,53.93c-.07.04-.13.08-.2.12l-10.94-15.1c2.61.22,7.47,1.06,10.13,4.23,2.14,2.55,2.48,6.17,1.01,10.75ZM38.57,56.94c1.84,3.67,4.43,6.92,7.54,9.51h-11.37c-1.35-3.21-2.04-6.88-1.99-10.66.05-3.8.78-7.85,2.28-12.49.31,4.94,1.5,9.58,3.54,13.64ZM31.21,51.45c-2.73-.31-5.54-.13-8.24.53v-9.06l11.49-3.54c-1.69,4.46-2.75,8.4-3.24,12.06ZM23.54,29.73l5.81,4.39c-2.33-.43-4.49-.17-6.39.75v-.06c0-1.74.2-3.44.57-5.08ZM33.98,37.74l-11.01,3.39v-4.27c2.18-1.46,4.85-1.66,7.94-.57,1.22.43,2.29.98,3.07,1.45ZM34.78,36.03l-10.75-8.12c.19-.6.41-1.2.65-1.78,4.19.45,7.19,2.49,8.92,6.07.56,1.16.91,2.32,1.11,3.3l.07.53ZM22.97,53.73c2.63-.71,5.39-.91,8.05-.61-.08.9-.13,1.78-.14,2.65,0,.74,0,1.48.05,2.21-2.78.52-5.45,1.36-7.97,2.51v-6.76ZM36.63,35.57c-.02-.12-.05-.24-.07-.36l-2.36-18.93c1.76,1.38,4.4,3.99,5.26,7.73.82,3.59-.13,7.47-2.82,11.56ZM32.3,16.08l1.65,13.2c-2-2.64-4.9-4.26-8.53-4.77,1.62-3.24,3.98-6.11,6.88-8.43ZM22.97,62.4c2.55-1.25,5.27-2.15,8.12-2.71.28,2.37.84,4.66,1.67,6.77h-9.79v-4.06ZM48.97,66.46c-2.68-1.92-5.02-4.33-6.88-7.09-.4-.6-.78-1.21-1.14-1.83-.24-.42-.47-.86-.69-1.29,0-.01-.01-.02-.02-.04-.37-.75-.72-1.51-1.03-2.3-1.59-3.98-2.4-8.46-2.4-13.18l10.24,14.13c-.82.32-1.62.49-2.4.52-1.39.05-2.76-.36-4.05-.88.2.45.41.9.63,1.34.14.28.29.56.44.84.97.27,1.99.43,3.06.39,2.26-.08,4.51-1.05,6.9-2.95.69-.55,1.35-1.14,1.99-1.71,1.07-.95,2.07-1.85,3.22-2.6,2.4-1.57,5.43-2.39,8.41-2.34-.61.27-1.21.58-1.78.94-1.83,1.17-3.03,2.79-3.3,4.46-.34,2.1.91,4.19,2.9,4.87.5.17,1.03.25,1.59.25,1,0,2.08-.28,3.13-.82.76-.39,1.46-.88,2.05-1.31l.25-.18c.37-.27.72-.53,1.09-.77,1.99-1.32,4.41-2.18,6.9-2.47v3.9c-4.68,3.19-10.37,4.87-16.06,4.77-3.91-.07-7.83-.97-11.62-1.84-2.65-.61-5.37-1.23-8.14-1.59.39.65.81,1.28,1.25,1.89,2.17.35,4.32.85,6.43,1.33,3.89.89,7.92,1.81,12.04,1.89.18,0,.36,0,.55,0,5.48,0,10.92-1.54,15.55-4.39v8.05h-29.1ZM67.55,55.31c-.22.14-.45.27-.68.39-1.14.58-2.28.75-3.15.45-1.17-.4-1.92-1.74-1.71-3.04.19-1.21,1.12-2.42,2.53-3.32.34-.22.71-.42,1.08-.6-.29.64-.44,1.31-.43,1.97.02,1.62.94,3.19,2.36,4.14ZM78.08,50.73c-2.88.3-5.7,1.28-8,2.81-.33.22-.65.45-.96.68-1.22-.59-2.05-1.81-2.06-3.07-.01-1.27.96-2.72,2.21-3.31h0c.32-.15.52-.45.5-.78-.01-.37-.29-.69-.68-.78-4.53-1.14-9.52-.32-13.33,2.17-1.26.83-2.37,1.81-3.43,2.76-.34.3-.68.61-1.03.91.85-4.08.21-7.43-1.93-9.97-1.23-1.47-2.83-2.5-4.49-3.23h2.87c2.48,2.23,5.75,3.44,9.25,3.44,7.28,0,13.2-5.37,13.2-11.97s-5.92-11.98-13.2-11.98-13.2,5.37-13.2,11.98c0,.5.03.99.1,1.49-1.36.3-2.69.84-3.97,1.6,1.63-3.41,2.08-6.71,1.36-9.83-1.12-4.85-4.77-7.93-6.64-9.23,4.49-2.89,9.98-4.59,15.89-4.59,15.19,0,27.55,11.21,27.55,25v15.92Z"/>
      </g>
      <text class="cls-1" transform="translate(4.11 91.81)"><tspan x="0" y="0">BÚZIOS</tspan></text>
    </g>
  </g>
</svg>