<?xml version="1.0" encoding="UTF-8"?>
<svg xmlns="http://www.w3.org/2000/svg" version="1.1" viewBox="0 0 100 100">
  <defs>
    <style>
      .cls-1 {
        fill: #fff;
      }

      .cls-2 {
        fill: #cdbcac;
      }
    </style>
  </defs>
  <!-- Generator: Adobe Illustrator 28.7.1, SVG Export Plug-In . SVG Version: 1.2.0 Build 142)  -->
  <g>
    <g id="Layer_1">
      <path class="cls-2" d="M43.09,23.12c.96,0,1.66,0,2.35,0,12.51,0,25.02,0,37.53,0,.49,0,.98,0,1.46.04,2.99.28,5.19,2.51,5.45,5.51.03.32.02.65.02.97,0,15.11,0,30.22,0,45.33,0,.81-.01,1.64-.21,2.42-.7,2.79-2.93,4.44-5.99,4.52-.87.02-1.73-.02-2.6-.02-21.56,0-43.11,0-64.67,0-4.07,0-6.38-2.21-6.51-6.26-.04-1.08,0-2.17,0-3.25,0-13.7,0-27.41,0-41.11,0-.81-.02-1.63.02-2.44.18-3.32,2.57-5.64,5.89-5.73.9-.02,1.81,0,2.92,0,0-1.18-.01-2.14,0-3.1.03-1.98.26-2.22,2.22-2.35.21-.01.42-.05.83-.11.02-1.12.03-2.24.05-3.35.04-1.74.37-2.09,2.12-2.09,4.66-.01,9.32,0,13.97,0,1.68,0,2.06.41,2.11,2.14.03.97.03,1.95.06,2.92,0,.1.08.19.18.4.41.04.88.07,1.35.13,1.09.14,1.38.44,1.45,1.56.03.59,0,1.19,0,1.79,0,.59,0,1.17,0,2.06ZM49.85,79.1v-.02c11.1,0,22.2,0,33.29,0,2.82,0,3.91-1.13,3.91-3.96,0-14.62,0-29.23,0-43.85,0-.76.03-1.52-.03-2.27-.15-1.8-1.22-2.87-3.01-3.01-.81-.06-1.62-.07-2.43-.07-21.06,0-42.12,0-63.18,0-.97,0-1.95,0-2.92.1-1.46.15-2.48,1.14-2.71,2.59-.1.58-.09,1.19-.09,1.78,0,14.62,0,29.23,0,43.85,0,.6-.03,1.2.03,1.78.19,1.8,1.39,2.94,3.2,3.06.32.02.65.02.97.02,10.99,0,21.98,0,32.97,0ZM37.26,15.07h-12.63c0,.97,0,1.83,0,2.68,0,2.52-.03,2.53-2.46,2.76-.15.01-.28.12-.58.26.03.73.07,1.5.1,2.23,4.26.37,17.24.22,18.47-.2v-2.2c-.38-.06-.64-.13-.9-.15-1.84-.17-1.98-.31-2-2.18-.01-1.01,0-2.03,0-3.19Z"/>
      <path class="cls-1" d="M49.85,79.1c-10.99,0-21.98,0-32.97,0-.32,0-.65,0-.97-.02-1.81-.13-3.01-1.26-3.2-3.06-.06-.59-.03-1.19-.03-1.78,0-14.62,0-29.23,0-43.85,0-.59,0-1.2.09-1.78.24-1.44,1.26-2.44,2.71-2.59.97-.1,1.95-.1,2.92-.1,21.06,0,42.12,0,63.18,0,.81,0,1.63,0,2.43.07,1.79.14,2.86,1.21,3.01,3.01.06.75.03,1.51.03,2.27,0,14.62,0,29.23,0,43.85,0,2.83-1.1,3.96-3.91,3.96-11.1,0-22.2,0-33.29,0v.02ZM39.38,73.69c11.22.27,20.96-9.38,20.98-20.91.02-11.64-9.49-21.14-20.96-21.15-11.52-.01-21.15,9.17-21.16,21.14-.01,11.74,9.84,21.22,21.14,20.92ZM72.81,41.8h0c2.43,0,4.86.02,7.3,0,1.53-.01,1.94-.41,1.95-1.93.03-2.81.02-5.62,0-8.43,0-1.44-.38-1.84-1.83-1.85-4.92-.03-9.84-.03-14.75,0-1.5,0-1.86.37-1.88,1.81-.04,2.81-.04,5.62,0,8.43.02,1.56.46,1.95,2.09,1.96,2.38.02,4.76,0,7.13,0Z"/>
      <path class="cls-1" d="M37.26,15.07c0,1.17-.01,2.18,0,3.19.02,1.87.16,2.01,2,2.18.26.02.52.09.9.15v2.2c-1.23.42-14.21.57-18.47.2-.03-.74-.07-1.5-.1-2.23.29-.13.43-.24.58-.26,2.43-.23,2.45-.25,2.46-2.76,0-.85,0-1.71,0-2.68h12.63Z"/>
      <path class="cls-2" d="M39.38,73.69c-11.3.3-21.16-9.18-21.14-20.92.01-11.97,9.64-21.16,21.16-21.14,11.47.01,20.98,9.51,20.96,21.15-.02,11.53-9.76,21.19-20.98,20.91ZM39.21,70.98c9.51,0,18.02-7.37,18.35-17.76.32-10.26-7.91-18.68-18.09-18.82-9.96-.14-18.42,8.1-18.46,18.16-.03,9.95,7.84,18.24,18.2,18.42Z"/>
      <path class="cls-2" d="M72.81,41.8c-2.38,0-4.76.01-7.13,0-1.63-.01-2.07-.4-2.09-1.96-.03-2.81-.03-5.62,0-8.43.02-1.45.37-1.81,1.88-1.81,4.92-.03,9.84-.03,14.75,0,1.46,0,1.82.41,1.83,1.85.02,2.81.02,5.62,0,8.43-.01,1.52-.43,1.91-1.95,1.93-2.43.02-4.86,0-7.3,0h0ZM66.45,38.89h12.73c.15-2.23.12-4.34.03-6.46h-12.76v6.46Z"/>
      <path class="cls-1" d="M39.21,70.98c-10.36-.18-18.23-8.47-18.2-18.42.03-10.05,8.5-18.29,18.46-18.16,10.17.14,18.41,8.56,18.09,18.82-.33,10.39-8.84,17.76-18.35,17.76ZM52.5,52.7c-.03-7.41-5.91-13.31-13.36-13.22-7.08.09-13.03,5.68-13.04,13.2,0,7.45,5.87,13.23,13.35,13.18,7.26-.05,13.08-5.92,13.04-13.17Z"/>
      <path class="cls-1" d="M66.45,38.89v-6.46h12.76c.09,2.13.12,4.24-.03,6.46h-12.73Z"/>
      <path class="cls-2" d="M52.5,52.7c.03,7.25-5.78,13.12-13.04,13.17-7.48.05-13.36-5.73-13.35-13.18,0-7.53,5.96-13.12,13.04-13.2,7.45-.09,13.32,5.81,13.36,13.22ZM39.55,42.31c-5.78-.13-10.63,4.56-10.7,10.35-.06,5.45,4.66,10.35,10.11,10.48,5.69.13,10.6-4.49,10.78-10.15.18-5.65-4.5-10.56-10.19-10.69Z"/>
      <path class="cls-1" d="M39.55,42.31c5.69.13,10.37,5.04,10.19,10.69-.18,5.66-5.09,10.28-10.78,10.15-5.45-.13-10.18-5.03-10.11-10.48.07-5.79,4.92-10.48,10.7-10.35Z"/>
    </g>
  </g>
</svg>