<?xml version="1.0" encoding="UTF-8"?>
<svg xmlns="http://www.w3.org/2000/svg" version="1.1" viewBox="0 0 100 100">
  <defs>
    <style>
      .cls-1 {
        fill: #fff;
      }

      .cls-2 {
        fill: #cdbcac;
      }
    </style>
  </defs>
  <!-- Generator: Adobe Illustrator 28.7.1, SVG Export Plug-In . SVG Version: 1.2.0 Build 142)  -->
  <g>
    <g id="Layer_1">
      <path class="cls-2" d="M52.09,26.69c1.36-.16,2.5-.35,3.65-.41.64-.03,1.12-.17,1.41-.77,1.11-2.24,2.22-4.47,3.43-6.88-.8-.39-1.47-.72-2.15-1.04-3.15-1.48-4.1-4.24-2.53-7.35.76-1.49,1.48-3,2.25-4.48,1.66-3.21,3.91-4.04,7.17-2.5,3.89,1.84,7.74,3.8,11.6,5.71,2.02,1,4.04,1.99,6.02,3.05,2.81,1.5,3.6,3.96,2.24,6.81-.78,1.62-1.56,3.25-2.39,4.84-1.64,3.13-4.06,3.93-7.22,2.42-.69-.33-1.36-.68-2.26-1.13-1.73,3.48-3.41,6.85-5.18,10.42.56.28,1.03.56,1.53.78,2.21.93,3.98,2.38,5.01,4.57.49,1.04,1.11,1.55,2.29,1.65,1.65.14,2.71,1.25,2.79,2.92.11,2.25.08,4.5,0,6.75-.05,1.52-.92,2.49-2.42,2.87-.43.11-.87.21-1.46.36-.35,1.16-.74,2.37-1.08,3.6-2.6,9.29-5.19,18.58-7.77,27.88-.48,1.73-.91,3.48-1.4,5.21-.56,2-.83,2.2-2.98,2.22-1.8.02-3.6,0-5.41,0-7.66,0-15.31,0-22.97,0-.64,0-1.29.01-1.93-.03-1.4-.09-1.84-.44-2.2-1.72-1.35-4.83-2.7-9.66-4.04-14.49-1.74-6.26-3.46-12.52-5.19-18.78-.36-1.29-.69-2.59-1.04-3.88-.44-.08-.75-.14-1.05-.2-2.01-.43-2.89-1.4-2.95-3.43-.06-1.93-.05-3.86,0-5.79.05-2.29,1.12-3.37,3.43-3.56.32-.03.64-.03.98-.05,1.18-1.63,2-3.23,2.1-5.4.28-6,6.04-10.12,12.18-9.01.44.08.87.19,1.25.27,6.19-5.7,10.4-6.03,16.3-1.4ZM23.42,55.18c.15.69.25,1.24.4,1.77,2.13,7.75,4.27,15.49,6.39,23.24.56,2.03.53,2.05,2.77,2.05,9.97,0,19.94,0,29.91,0,.62,0,1.25-.07,1.95-.11,2.59-8.98,5.02-17.87,7.48-26.94H23.42ZM71.45,42.15c-.18-.4-.24-.65-.39-.83-1.59-1.91-3.6-2.82-6.12-2.55-2.02.21-2.67-.29-2.58-2.29.18-3.8-3.88-8.31-9.12-6.42-1.55.56-2.63.48-3.7-.88-1.21-1.55-2.95-2.2-4.92-2.22-2.79-.02-4.72,1.33-6.12,3.67-.92,1.54-1.52,1.7-3.17,1.06-.3-.12-.59-.27-.89-.37-4.28-1.43-9,1.88-8.87,6.39.05,1.55.28,3.01-1.12,4.44h47ZM19.29,51.52c2.42.42,55.57.32,57.05-.08v-5.67H19.29v5.75ZM82.4,16.63c.01-1.15-.73-1.52-1.5-1.91-2.76-1.38-5.51-2.78-8.27-4.15-2.82-1.41-5.64-2.8-8.47-4.19-1.7-.84-2.11-.71-3.03,1.02-.66,1.25-1.3,2.51-1.91,3.79-1.04,2.19-.93,2.52,1.18,3.58,3.27,1.64,6.55,3.29,9.83,4.92,2.24,1.12,4.48,2.26,6.75,3.32,1.52.71,2.05.5,2.8-.94.74-1.42,1.45-2.87,2.16-4.31.2-.4.34-.83.46-1.14ZM62.46,90.74c.47-1.69.91-3.27,1.39-5.01h-31.95c.26,1.15.45,2.14.71,3.12.53,1.98.54,1.99,2.61,1.99,8.48,0,16.95,0,25.43,0,.51,0,1.02-.05,1.81-.09ZM63.61,20.12c-1.24,2.53-2.35,4.79-3.41,6.96,1.1,1,2.13,1.78,2.96,2.73.82.94,1.44,2.06,2.31,3.33,1.62-3.3,3.17-6.45,4.77-9.71-2.3-1.15-4.33-2.17-6.63-3.32Z"/>
      <path class="cls-1" d="M23.42,55.18h48.89c-2.46,9.07-4.89,17.96-7.48,26.94-.7.04-1.33.11-1.95.11-9.97,0-19.94.01-29.91,0-2.24,0-2.21-.02-2.77-2.05-2.12-7.75-4.26-15.49-6.39-23.24-.15-.53-.24-1.08-.4-1.77Z"/>
      <path class="cls-1" d="M71.45,42.15H24.45c1.4-1.43,1.16-2.89,1.12-4.44-.13-4.51,4.59-7.82,8.87-6.39.3.1.59.25.89.37,1.65.63,2.26.48,3.17-1.06,1.39-2.34,3.33-3.69,6.12-3.67,1.97.02,3.71.67,4.92,2.22,1.07,1.36,2.15,1.44,3.7.88,5.24-1.89,9.29,2.62,9.12,6.42-.09,2,.57,2.5,2.58,2.29,2.52-.26,4.52.65,6.12,2.55.15.18.21.43.39.83Z"/>
      <path class="cls-1" d="M19.29,51.52v-5.75h57.05v5.67c-1.48.4-54.63.49-57.05.08Z"/>
      <path class="cls-1" d="M82.4,16.63c-.13.32-.27.74-.46,1.14-.71,1.44-1.42,2.88-2.16,4.31-.75,1.44-1.28,1.64-2.8.94-2.27-1.06-4.5-2.2-6.75-3.32-3.28-1.64-6.55-3.28-9.83-4.92-2.11-1.06-2.23-1.39-1.18-3.58.61-1.28,1.24-2.54,1.91-3.79.92-1.72,1.32-1.86,3.03-1.02,2.83,1.39,5.65,2.78,8.47,4.19,2.76,1.38,5.51,2.78,8.27,4.15.77.38,1.51.76,1.5,1.91Z"/>
      <path class="cls-1" d="M62.46,90.74c-.79.04-1.3.09-1.81.09-8.48,0-16.95.01-25.43,0-2.07,0-2.08-.01-2.61-1.99-.26-.97-.45-1.97-.71-3.12h31.95c-.48,1.74-.92,3.32-1.39,5.01Z"/>
      <path class="cls-1" d="M63.61,20.12c2.29,1.15,4.33,2.17,6.63,3.32-1.6,3.26-3.15,6.42-4.77,9.71-.86-1.27-1.48-2.39-2.31-3.33-.83-.95-1.85-1.73-2.96-2.73,1.06-2.17,2.17-4.43,3.41-6.96Z"/>
    </g>
  </g>
</svg>