<?xml version="1.0" encoding="UTF-8"?>
<svg xmlns="http://www.w3.org/2000/svg" version="1.1" viewBox="0 0 100 100">
  <defs>
    <style>
      .cls-1 {
        fill: #fff;
      }

      .cls-2 {
        fill: #cdbcac;
      }
    </style>
  </defs>
  <!-- Generator: Adobe Illustrator 28.7.1, SVG Export Plug-In . SVG Version: 1.2.0 Build 142)  -->
  <g>
    <g id="Layer_1">
      <path class="cls-2" d="M44.64,28.9c-6.52,0-13.03,0-19.55,0-3.47,0-6.53,1.15-9.05,3.52-3.8,3.58-5.4,7.99-4.15,13.12,1.26,5.16,4.6,8.67,9.7,10.03,6.81,1.82,13.26-.94,16.37-7.06.77-1.52.96-3.33,1.4-5.01.07-.29.02-.6.06-.9.15-1.02.77-1.67,1.58-1.68.88,0,1.62.73,1.59,1.83-.03,1.2-.15,2.42-.44,3.58-2.02,8.07-9.14,12.8-16.17,12.82-7.22.02-12.58-2.97-15.89-9.35-3.52-6.77-1.8-16.59,6.19-21.56,2.7-1.68,5.65-2.46,8.77-2.47,13.09-.04,26.19-.14,39.28.03,6.86.09,12.06,3.46,14.89,9.72,2.75,6.09,2.01,12.08-2.15,17.37-3.19,4.05-7.5,6.08-12.72,6.23-4.06.12-7.79-.78-11.05-3.24-4.26-3.21-6.42-7.56-6.74-12.85-.02-.41-.04-.96.19-1.21.37-.4.97-.84,1.45-.82.47.02,1.06.51,1.34.96.26.42.21,1.04.23,1.58.21,5.71,5.19,11.39,11.37,12.31,4.95.73,9.26-.45,12.7-4.09,7.17-7.59,3.55-18.84-5.23-22.07-1.73-.64-3.5-.83-5.33-.83-6.21,0-12.43,0-18.64,0v.02Z"/>
      <path class="cls-2" d="M46.88,69.16c.45,2.91,1.94,5.29,3.99,7.29,3.07,3,6.81,4.45,11.14,4.37,2.59-.05,5.19-.06,7.78,0,8.34.19,15.41-6.64,15.39-15.14-.04-17.02,0-34.03,0-51.05,0-.97-.03-1.93.04-2.89.08-1.08.67-1.62,1.58-1.59.92.03,1.45.58,1.5,1.65.04.84.02,1.69.02,2.53,0,17.08.02,34.15,0,51.23-.01,7.87-4.52,14.41-11.79,17.26-2.11.83-4.34,1.04-6.57,1.06-3.38.03-6.76.06-10.13-.1-7.22-.36-13.63-5.54-15.76-12.66-.37-1.25-.93-2.04-2.15-2.64-2.04-1-3.14-2.77-3.2-5.09-.03-1.08-.05-2.18.07-3.25.35-3.09,3.1-5.33,6.34-5.24,3.14.09,5.74,2.63,5.88,5.76.03.6-.02,1.21.01,1.81.14,2.9-1.11,4.99-3.66,6.32-.15.08-.28.21-.49.36ZM48.11,62.1c-.05-.01-.1-.02-.15-.03,0-.42.05-.85,0-1.26-.24-1.63-1.54-2.8-3.05-2.8-1.52,0-2.83,1.17-3,2.83-.1.95-.09,1.94.05,2.88.2,1.3,1.32,2.25,2.59,2.42,1.11.14,2.55-.54,3-1.6.32-.75.38-1.61.56-2.43Z"/>
      <path class="cls-2" d="M30.64,31.38c1.99,0,3.98,0,5.97,0,.42,0,.85,0,1.26.07.85.15,1.23.74,1.2,1.55-.03.73-.4,1.28-1.16,1.41-.47.08-.96.07-1.44.07-3.74,0-7.47-.03-11.21.01-3.69.05-6.49,1.98-7.73,5.21-1.4,3.64.03,7.9,3.29,9.77,3.84,2.21,8.42,1.47,10.94-1.76,1.07-1.36,1.77-2.86,1.9-4.61.02-.3.09-.6.15-.89.15-.78.68-1.1,1.42-1.11.77-.01,1.3.39,1.44,1.11.11.58.1,1.2.02,1.79-.73,5.63-5.48,9.63-10.99,9.8-6.48.2-11-4.52-11.8-9.53-.99-6.17,3.81-12.41,10.07-12.83,2.22-.15,4.46-.02,6.69-.02,0-.02,0-.03,0-.05Z"/>
      <path class="cls-2" d="M58.54,31.38c1.87,0,3.74-.02,5.61,0,5.48.07,10.12,3.92,11.02,9.15.97,5.63-2.05,11.09-7.49,12.7-5.91,1.74-11.45-.16-14.19-5.85-.66-1.37-.84-3-1.08-4.53-.15-.99.54-1.67,1.43-1.72.83-.05,1.4.42,1.65,1.36.35,1.33.51,2.75,1.1,3.96,1.53,3.16,5.32,4.92,8.84,4.16,3.95-.85,6.35-3.38,6.76-7.28.46-4.42-2.9-8.74-8.21-8.83-3.74-.06-7.48,0-11.22,0-.42,0-.85.02-1.26-.03-.98-.12-1.45-.63-1.45-1.51,0-.88.46-1.46,1.44-1.51,1.5-.08,3.01-.04,4.52-.04.84,0,1.69,0,2.53,0h0Z"/>
      <path class="cls-1" d="M48.11,62.1c-.18.81-.24,1.67-.56,2.43-.45,1.06-1.9,1.74-3,1.6-1.27-.16-2.4-1.12-2.59-2.42-.14-.94-.15-1.93-.05-2.88.17-1.65,1.48-2.83,3-2.83,1.51,0,2.81,1.17,3.05,2.8.06.41,0,.84,0,1.26.05.01.1.02.15.03Z"/>
    </g>
  </g>
</svg>