<?xml version="1.0" encoding="UTF-8"?>
<svg xmlns="http://www.w3.org/2000/svg" version="1.1" viewBox="0 0 100 100">
  <defs>
    <style>
      .cls-1 {
        fill: #fff;
      }

      .cls-2 {
        fill: #cdbcac;
      }
    </style>
  </defs>
  <!-- Generator: Adobe Illustrator 28.7.1, SVG Export Plug-In . SVG Version: 1.2.0 Build 142)  -->
  <g>
    <g id="Layer_1">
      <path class="cls-2" d="M11.67,58.75c.17.06.66.21,1.14.4,2.39.98,4.78,1.97,7.17,2.95.27.11.53.23.8.32,1.53.51,2.26.01,2.36-1.62.41-6.36,2.73-11.93,7.01-16.66,9.71-10.73,26.65-11.6,37.42-1.92,5.28,4.75,8.2,10.69,8.93,17.73.07.65-.22,1.47.57,1.85,1.01.49,1.97,1.1,3.24.52,2.14-.98,4.35-1.79,6.54-2.67.37-.15.74-.32,1.13-.41.71-.17,1.25.12,1.57.75.33.64.18,1.25-.34,1.72-.25.22-.58.36-.89.49-2.6,1.07-5.22,2.11-7.81,3.21-.92.39-1.73.33-2.65-.04-3.76-1.56-7.57-3.03-11.32-4.62-1.21-.51-2.26-.5-3.46,0-3.7,1.57-7.45,3.02-11.15,4.58-1.09.46-2.03.44-3.12-.02-3.64-1.56-7.33-3-10.98-4.54-1.24-.52-2.36-.56-3.63-.02-3.64,1.56-7.34,2.99-10.99,4.53-1.08.46-2.03.51-3.13.04-2.84-1.23-5.73-2.36-8.6-3.53-.32-.13-.66-.24-.94-.42-.56-.37-.96-.87-.76-1.59.22-.76.76-1.11,1.9-1.04ZM26.28,60.76c.72-.26,1.31-.45,1.89-.68,1.81-.72,3.62-1.45,5.42-2.2,1.62-.67,3.2-.68,4.83,0,3.49,1.46,7.03,2.81,10.5,4.3,1.11.48,2.02.42,3.1-.04,3.27-1.41,6.58-2.69,9.86-4.08,1.96-.83,3.85-.95,5.82-.04,1.51.7,3.07,1.27,4.62,1.87.33.13.7.15,1.09.23-.52-10.67-10.12-21.99-24.07-21.7-14.15.29-22.99,12.32-23.06,22.32Z"/>
      <path class="cls-2" d="M50.41,75.39c-.51-.18-1-.33-1.48-.53-3.67-1.49-7.35-2.95-10.99-4.5-1.37-.59-2.59-.58-3.96.01-3.58,1.55-7.23,2.95-10.82,4.48-1.08.46-2.03.48-3.12,0-2.84-1.24-5.73-2.38-8.59-3.55-.27-.11-.55-.19-.79-.33-.8-.46-1.09-1.16-.81-1.86.31-.79,1.03-1.14,1.98-.77,2.73,1.06,5.45,2.14,8.14,3.29,1.07.46,1.95.55,3.08.06,3.36-1.48,6.81-2.76,10.2-4.18,1.86-.78,3.64-.79,5.5,0,3.54,1.5,7.13,2.89,10.66,4.4.86.37,1.54.17,2.29-.14,3.45-1.41,6.93-2.77,10.36-4.25,1.87-.8,3.65-.81,5.5-.03,3.34,1.4,6.72,2.67,10.02,4.14,1.23.55,2.24.47,3.4-.06,1.72-.79,3.49-1.46,5.25-2.18.48-.2.96-.41,1.45-.54.89-.24,1.58.06,1.9.75.34.75.06,1.55-.87,1.95-2.95,1.26-5.92,2.51-8.93,3.6-.63.23-1.56-.13-2.28-.41-3.58-1.41-7.15-2.83-10.68-4.37-1.44-.63-2.69-.57-4.11.05-3.52,1.54-7.1,2.96-10.66,4.41-.53.22-1.08.36-1.64.54Z"/>
      <path class="cls-2" d="M81.92,28.84c-.16.26-.34.75-.69,1.1-2.77,2.82-5.57,5.61-8.36,8.41-.2.2-.4.42-.64.57-.58.39-1.2.44-1.75-.02-.6-.51-.67-1.19-.3-1.87.19-.34.5-.62.78-.91,2.62-2.65,5.24-5.29,7.88-7.93.32-.32.65-.67,1.05-.87.96-.5,2.06.21,2.04,1.51Z"/>
      <path class="cls-2" d="M29.5,37.49c.02,1.31-1.13,2.04-2.07,1.55-.35-.18-.64-.48-.92-.76-2.67-2.67-5.34-5.35-8.01-8.04-1.1-1.11-1.26-1.93-.56-2.65.72-.75,1.52-.59,2.64.54,2.67,2.68,5.35,5.35,7.99,8.05.42.43.71,1,.92,1.31Z"/>
      <path class="cls-2" d="M48.27,22c0-1.84,0-3.68,0-5.52,0-.46,0-.93.1-1.37.18-.7.76-1.05,1.42-1.04.67.02,1.19.42,1.3,1.15.05.34.04.69.04,1.03,0,3.79,0,7.58,0,11.38,0,.34,0,.69-.04,1.03-.09.73-.54,1.13-1.26,1.18-.8.05-1.33-.35-1.49-1.13-.09-.45-.08-.91-.08-1.37,0-1.78,0-3.56,0-5.34h0Z"/>
      <path class="cls-1" d="M26.28,60.76c.07-10,8.91-22.03,23.06-22.32,13.95-.29,23.54,11.03,24.07,21.7-.39-.08-.76-.1-1.09-.23-1.55-.6-3.12-1.17-4.62-1.87-1.97-.92-3.86-.8-5.82.04-3.27,1.39-6.59,2.67-9.86,4.08-1.08.46-2,.51-3.1.04-3.48-1.49-7.01-2.84-10.5-4.3-1.64-.69-3.22-.68-4.83,0-1.8.75-3.61,1.47-5.42,2.2-.58.23-1.17.42-1.89.68Z"/>
    </g>
  </g>
</svg>