<?xml version="1.0" encoding="UTF-8"?>
<svg xmlns="http://www.w3.org/2000/svg" version="1.1" viewBox="0 0 100 100">
  <defs>
    <style>
      .cls-1 {
        fill: #fff;
      }

      .cls-2 {
        fill: #cdbcac;
      }
    </style>
  </defs>
  <!-- Generator: Adobe Illustrator 28.7.1, SVG Export Plug-In . SVG Version: 1.2.0 Build 142)  -->
  <g>
    <g id="Layer_1">
      <path class="cls-2" d="M38.12,50.54c0-2.31.06-4.45-.05-6.58-.02-.46-.59-1-1.03-1.3-3.17-2.16-6.37-4.26-9.56-6.39-.5-.33-1-.66-1.48-1.02-1.86-1.38-2.65-3.24-2.24-5.5.43-2.35.99-4.69,1.52-7.02.73-3.21,1.48-6.42,2.22-9.63.09-.41.18-.82.32-1.22.97-2.91,3.73-4.48,6.66-3.78,2.71.64,4.49,3.41,4.01,6.36-.25,1.53-.64,3.05-.99,4.56-.54,2.33-1.1,4.66-1.63,7-.13.57-.15,1.16-.23,1.82,3.13,1.59,6.16,3.14,9.21,4.64.46.23,1.04.31,1.56.31,2.82.03,5.63.03,8.45,0,.52,0,1.1-.08,1.56-.3,3.05-1.51,6.08-3.08,9.3-4.72-.3-1.43-.56-2.83-.87-4.21-.67-2.92-1.42-5.82-2.03-8.75-.9-4.38,2.47-7.18,5.89-6.83,2.34.23,4.22,1.89,4.85,4.42.72,2.91,1.36,5.83,2.02,8.75.59,2.57,1.17,5.13,1.74,7.7.62,2.78-.02,5.05-2.54,6.69-3.51,2.29-6.95,4.7-10.45,6.99-.91.59-1.29,1.25-1.24,2.34.09,1.66.02,3.33.02,5.05,3.47.14,6.15,2.1,9.1,3.28,1.94.78,3.85,1.66,5.72,2.6.96.48,1.76.42,2.71-.01,3.75-1.73,7.52-3.41,11.3-5.09.49-.22,1.04-.52,1.52-.45.52.07,1.15.43,1.42.85.36.59.15,1.31-.45,1.75-.43.31-.93.55-1.42.77-4.14,1.89-8.3,3.74-12.43,5.65-1.04.48-1.94.28-2.91-.16-3.86-1.78-7.76-3.48-11.6-5.29-1.02-.48-1.85-.49-2.87-.02-3.76,1.72-7.57,3.32-11.32,5.04-1.14.52-2.11.49-3.24-.03-3.81-1.74-7.68-3.36-11.49-5.09-.9-.41-1.61-.4-2.52.03-3.9,1.84-7.86,3.55-11.76,5.38-1.19.56-2.21.53-3.4-.04-4.16-1.98-8.38-3.85-12.57-5.77-.11-.05-.22-.1-.33-.15-1.31-.63-1.75-1.39-1.34-2.31.39-.87,1.27-1.06,2.65-.46,2.58,1.12,5.14,2.29,7.71,3.44,1.42.64,2.84,1.28,4.25,1.95.92.44,1.72.49,2.72.01,3.62-1.73,7.29-3.34,10.96-4.97,2.13-.94,2.14-.92,4.62-.3ZM41.18,52.1c2.92,1.29,5.64,2.53,8.4,3.68.43.18,1.07.09,1.52-.09,2.55-1.05,5.05-2.2,7.6-3.23,1.06-.43,1.43-1.08,1.4-2.19-.07-2.4.02-4.79-.03-7.19-.02-.94.29-1.6,1.08-2.1.96-.61,1.87-1.29,2.81-1.93,3.02-2.05,6.04-4.12,9.09-6.13,1.28-.84,1.66-1.89,1.3-3.37-.88-3.61-1.67-7.24-2.51-10.85-.45-1.92-.92-3.84-1.39-5.76-.24-.97-.87-1.53-1.84-1.76-1.01-.23-1.77.24-2.37.94-.59.69-.55,1.5-.34,2.38,1.03,4.25,2.01,8.51,3,12.77.45,1.95.33,2.26-1.39,3.14-3.41,1.75-6.82,3.5-10.25,5.2-.51.25-1.14.38-1.72.39-2.16.03-4.32-.14-6.47,0-2.83.2-5.4-.3-7.87-1.77-2.47-1.47-5.11-2.64-7.66-3.96-1.34-.69-1.54-1.13-1.27-2.58.09-.47.23-.93.33-1.4.92-3.96,1.86-7.93,2.76-11.9.38-1.66-.28-2.86-1.71-3.22-1.37-.35-2.5.47-2.94,2.16-.28,1.1-.52,2.21-.78,3.32-.97,4.14-1.89,8.29-2.92,12.42-.46,1.87-.04,3.17,1.67,4.25,3.69,2.34,7.26,4.87,10.93,7.26,1.13.73,1.64,1.58,1.6,2.94-.08,2.81-.03,5.62-.03,8.58Z"/>
      <path class="cls-2" d="M79.24,89.52c-.72-.28-1.4-.5-2.05-.8-3.82-1.73-7.64-3.45-11.43-5.23-.78-.37-1.42-.38-2.2-.03-3.77,1.69-7.58,3.28-11.32,5.03-1.38.64-2.55.63-3.92.01-3.75-1.72-7.57-3.3-11.33-5-.79-.36-1.42-.37-2.19-.01-3.48,1.61-6.98,3.17-10.47,4.75-.55.25-1.11.47-1.64.74-1.05.54-2.04.44-3.09-.05-4.13-1.91-8.28-3.77-12.43-5.66-.49-.22-.97-.47-1.43-.76-.74-.46-.81-1.17-.51-1.89.29-.7.94-.98,1.63-.78.91.26,1.8.65,2.67,1.04,3.55,1.59,7.1,3.18,10.63,4.82.79.37,1.42.34,2.2-.02,3.69-1.71,7.44-3.31,11.1-5.09,1.66-.81,3.1-.83,4.77-.05,3.52,1.65,7.13,3.12,10.67,4.74,1.03.47,1.89.4,2.89-.05,3.65-1.66,7.35-3.21,10.99-4.89,1.32-.61,2.47-.53,3.76.08,3.69,1.72,7.44,3.31,11.12,5.05,1.13.53,2.05.57,3.19.03,3.62-1.72,7.3-3.33,10.95-4.98.44-.2.87-.42,1.33-.52.7-.15,1.35.04,1.7.7.39.72.21,1.41-.42,1.93-.32.26-.71.44-1.09.62-4.19,1.92-8.39,3.83-12.58,5.73-.48.22-1,.37-1.51.55Z"/>
      <path class="cls-2" d="M95.01,66.98c-.24.24-.58.85-1.1,1.09-4.56,2.12-9.15,4.17-13.73,6.26-.73.33-1.37.18-2.06-.13-3.48-1.6-6.98-3.17-10.47-4.75-.22-.1-.44-.2-.64-.32-1.57-.94-3.05-.87-4.73-.06-3.45,1.66-7.02,3.08-10.5,4.67-1.08.5-2.01.47-3.07-.01-3.49-1.58-7.04-3.03-10.51-4.66-1.6-.75-2.96-.79-4.57,0-3.71,1.81-7.52,3.42-11.27,5.15-.77.36-1.46.38-2.23.03-4.52-2.06-9.06-4.1-13.58-6.14-.27-.12-.54-.26-.78-.43-.66-.49-.87-1.16-.52-1.9.34-.75.97-1.03,1.78-.83.35.09.68.23,1.01.38,3.92,1.79,7.86,3.54,11.75,5.39,1.03.49,1.85.46,2.86-.02,3.89-1.84,7.85-3.55,11.74-5.41,1.19-.57,2.16-.34,3.24.14,3.77,1.69,7.56,3.32,11.31,5.05.91.42,1.66.45,2.55.05,3.76-1.7,7.56-3.32,11.3-5.07,1.32-.62,2.42-.58,3.73.06,3.77,1.82,7.63,3.47,11.42,5.27.97.46,1.76.41,2.7-.03,3.79-1.78,7.62-3.49,11.44-5.23.38-.17.77-.38,1.17-.44.98-.16,1.79.57,1.76,1.92Z"/>
      <path class="cls-2" d="M40.53,19.42c.07-5.83,4.52-10.11,10.41-10.03,5.59.07,9.93,4.71,9.79,10.46-.13,5.38-4.76,9.8-10.22,9.75-5.51-.06-10.05-4.69-9.98-10.18ZM50.53,26.4c3.78.09,6.98-2.76,7.06-6.82.08-4.17-3.09-7.13-6.96-7.14-3.7-.01-6.89,2.82-7,6.95-.1,3.8,3.05,6.96,6.9,7.01Z"/>
      <path class="cls-1" d="M41.18,52.1c0-2.95-.06-5.77.03-8.58.04-1.37-.47-2.21-1.6-2.94-3.67-2.38-7.23-4.92-10.93-7.26-1.71-1.08-2.13-2.37-1.67-4.25,1.02-4.13,1.95-8.28,2.92-12.42.26-1.11.5-2.22.78-3.32.43-1.68,1.57-2.51,2.94-2.16,1.43.37,2.09,1.56,1.71,3.22-.91,3.97-1.84,7.93-2.76,11.9-.11.47-.25.93-.33,1.4-.27,1.45-.07,1.89,1.27,2.58,2.55,1.32,5.19,2.49,7.66,3.96,2.48,1.47,5.04,1.97,7.87,1.77,2.15-.15,4.31.02,6.47,0,.58,0,1.2-.13,1.72-.39,3.43-1.71,6.84-3.45,10.25-5.2,1.72-.89,1.84-1.2,1.39-3.14-.99-4.26-1.97-8.52-3-12.77-.21-.87-.25-1.69.34-2.38.6-.7,1.36-1.17,2.37-.94.97.22,1.6.79,1.84,1.76.47,1.92.94,3.84,1.39,5.76.84,3.62,1.63,7.25,2.51,10.85.36,1.49-.02,2.53-1.3,3.37-3.05,2.01-6.06,4.08-9.09,6.13-.94.64-1.86,1.32-2.81,1.93-.79.5-1.1,1.16-1.08,2.1.05,2.4-.03,4.8.03,7.19.03,1.12-.34,1.77-1.4,2.19-2.55,1.03-5.05,2.19-7.6,3.23-.45.19-1.1.27-1.52.09-2.76-1.15-5.48-2.39-8.4-3.68Z"/>
      <path class="cls-1" d="M50.53,26.4c-3.85-.05-7-3.21-6.9-7.01.11-4.14,3.3-6.96,7-6.95,3.87.01,7.04,2.97,6.96,7.14-.08,4.06-3.28,6.91-7.06,6.82Z"/>
    </g>
  </g>
</svg>